<svg width="48" height="48" viewBox="0 0 256 256" fill="none" xmlns="http://www.w3.org/2000/svg" xmlns:xlink="http://www.w3.org/1999/xlink" version="1.1">
        <g transform="translate(0, 0)">
            <svg xmlns="http://www.w3.org/2000/svg" width="256" height="256" fill="none" viewBox="0 0 256 256">
<rect width="256" height="256" fill="#242938" rx="60"/>
<g transform="translate(64 44) scale(5.333333333333333)">
<path fill="#fff" d="M12,6v1.79c0,0.45,0.54,0.67,0.85,0.35l2.79,-2.79c0.2,-0.2,0.2,-0.51,0,-0.71l-2.79,-2.79C12.54,1.54,12,1.76,12,2.21V4c-4.42,0,-8,3.58,-8,8c0,1.04,0.2,2.04,0.57,2.95c0.27,0.67,1.13,0.84,1.62,0.34l0.02,-0.02c0.39,-0.39,0.32,-1.03,-0.15,-1.35C5.37,13.1,5.16,12.15,5.16,11 c0,-3.31,2.69,-6,6,-6z M12,16v-1.79c0,-0.45,-0.54,-0.67,-0.85,-0.35l-2.79,2.79c-0.2,0.2,-0.2,0.51,0,0.71l2.79,2.79c0.31,0.31,0.85,0.09,0.85,-0.35V19c4.42,0,8,-3.58,8,-8c0,-1.04,-0.2,-2.04,-0.57,-2.95C19.44,7.38,18.59,7.21,18.09,7.71l-0.02,0.02c-0.39,0.39,-0.32,1.03,0.15,1.35c0.37,0.26,0.58,1.21,0.58,1.91c0,3.31,-2.69,6,-7,6z"/>
</g>
</svg>
        </g>
        </svg>